<mxfile host="app.diagrams.net" modified="2023-03-30T01:39:36.316Z" agent="Mozilla/5.0 (Windows NT 10.0; Win64; x64) AppleWebKit/537.36 (KHTML, like Gecko) Chrome/111.0.0.0 Safari/537.36" version="21.1.2" etag="9oCCrlJPlRjDfPHUBUaH" type="github">
  <diagram name="第 1 页" id="zcnUSKS7QbZ0TMcBw65C">
    <mxGraphModel>
      <root>
        <mxCell id="0" />
        <mxCell id="1" parent="0" />
      </root>
    </mxGraphModel>
  </diagram>
</mxfile>
